<?xml version="1.0" encoding="utf-8"?>
<!-- Generator: Adobe Illustrator 16.0.4, SVG Export Plug-In . SVG Version: 6.00 Build 0)  -->
<!DOCTYPE svg PUBLIC "-//W3C//DTD SVG 1.1//EN" "http://www.w3.org/Graphics/SVG/1.1/DTD/svg11.dtd">
<svg version="1.1" id="Layer_1" xmlns="http://www.w3.org/2000/svg" xmlns:xlink="http://www.w3.org/1999/xlink" x="0px" y="0px"
	 width="100px" height="100px" viewBox="0 0 100 100" enable-background="new 0 0 100 100" xml:space="preserve">
<g>
	<path fill="#0F8F6A" d="M87.5,50.002C87.5,29.293,70.712,12.5,50,12.5S12.5,29.293,12.5,50.002C12.5,70.712,29.288,87.5,50,87.5
		c6.668,0,12.918-1.756,18.342-4.809c0.61-0.221,1.049-0.799,1.049-1.486c0-0.622-0.361-1.153-0.882-1.413l0.003-0.004l-6.529-4.002
		L61.98,75.79c-0.274-0.228-0.621-0.369-1.006-0.369c-0.238,0-0.461,0.056-0.662,0.149l-0.015-0.012
		c-3.183,1.289-6.657,2.002-10.298,2.002c-15.199,0-27.56-12.361-27.56-27.559C22.44,34.807,34.802,22.44,50,22.44
		c14.322,0,26.121,10.984,27.434,24.967C77.428,57.419,73.059,63,69.631,63c-1.847,0-3.254-1.23-3.254-3.957
		c0-0.527,0.176-1.672,0.264-2.111l4.164-19.917h-0.019c0.012-0.071,0.042-0.136,0.042-0.21c0-0.734-0.596-1.33-1.33-1.33h-7.23
		c-0.656,0-1.178,0.485-1.285,1.112l-0.025-0.001l-0.736,3.549c-1.848-3.342-5.63-5.893-10.995-5.893
		c-10.202,0-19.877,9.764-19.877,21.549c0,8.53,5.101,14.774,13.632,14.774c4.75,0,9.587-2.727,12.666-7.035l0.088,0.527
		c0.615,3.342,9.843,7.576,15.121,7.576c7.65,0,16.617-5.156,16.617-19.932l-0.022-0.01C87.477,51.13,87.5,50.568,87.5,50.002z
		 M56.615,56.844c-1.936,2.727-5.102,5.805-9.763,5.805c-4.486,0-7.212-3.166-7.212-7.737c0-6.422,5.013-12.754,12.049-12.754
		c3.957,0,6.244,2.551,7.123,4.486L56.615,56.844z"/>
</g>
</svg>
