<?xml version="1.0" encoding="utf-8"?>
<!-- Generator: Adobe Illustrator 16.0.4, SVG Export Plug-In . SVG Version: 6.00 Build 0)  -->
<!DOCTYPE svg PUBLIC "-//W3C//DTD SVG 1.1//EN" "http://www.w3.org/Graphics/SVG/1.1/DTD/svg11.dtd">
<svg version="1.1" id="Layer_1" xmlns="http://www.w3.org/2000/svg" xmlns:xlink="http://www.w3.org/1999/xlink" x="0px" y="0px"
	 width="267.758px" height="34.394px" viewBox="0 0 267.758 34.394" enable-background="new 0 0 267.758 34.394"
	 xml:space="preserve">
<g>
	<path fill="#FFFFFF" d="M31.904,23.958c1.024,6.544,4.558,10.157,9.44,9.946v0.351c-7.166,1.053-11.139-3.999-11.955-9.978
		L27.251,8.643l-7.299,16.49c0,0-0.978,2.129-1.204,3.581h-0.33L9.333,8.98L7.769,26.394c-0.076,0.844,0.719,1.513,1.367,1.498
		h0.547v0.332H2.89v-0.351h0.558c1.228,0,2.331-0.777,2.545-2.119L8.217,6.621C6.737,3.71,4.246,0.045,0,0.588V0.237
		c5.986-1.35,9.329,3.393,10.437,5.79l8.454,18.301L28.325,3.19h0.32L31.904,23.958z"/>
	<path fill="#FFFFFF" d="M49.684,24.062c0.564,1.137,1.395,1.611,2.133,1.611h0.209v0.276h-5.678v-0.274h0.22
		c0.63,0,1.339-0.601,0.977-1.659l-1.509-3.678h-6.992l-1.521,3.601c-0.423,1.106,0.304,1.736,0.949,1.736h0.22v0.274h-5.266v-0.277
		h0.219c0.735,0,1.6-0.47,2.167-1.596l5.722-12.251c-0.008,0,1.007-2.123,1.064-2.847h0.262L49.684,24.062z M45.694,19.511
		l-3.105-7.564l-3.196,7.564H45.694z"/>
	<path fill="#FFFFFF" d="M60.334,9.368c3.484,0,5.619,1.684,5.619,4.476c0,2.344-1.817,4.303-4.297,4.551
		c0.603,0.273,1.537,1.327,2.129,2.166c-0.004,0,1.275,1.732,2.418,3.013c1.125,1.262,1.899,2.087,3.432,2.101v0.277h-0.871
		c-3.057,0-4.264-1.391-5.131-2.432c-0.312-0.376-2.492-3.516-2.708-3.788c-0.749-0.937-1.708-1.86-2.801-1.86v-0.256
		c-0.001,0,0.681,0.011,1.585-0.011c1.528-0.039,3.27-0.053,4.062-2.377c0.132-0.387,0.21-0.969,0.193-1.575
		c-0.058-2.071-1.452-3.288-3.676-3.4c-1.553-0.079-2.916-0.009-3.178-0.024v13.949c0.018,0.83,0.681,1.498,1.571,1.498h0.374
		l0.005,0.276h-5.653l0.005-0.276h0.373c0.874,0,1.534-0.648,1.57-1.461V11.082c-0.029-0.819-0.691-1.438-1.57-1.438h-0.374
		l-0.005-0.276L60.334,9.368z"/>
	<path fill="#FFFFFF" d="M70.737,25.95l0.005-0.277h0.368c1.028,0,1.858-0.667,1.879-1.496V11.14
		c-0.021-0.83-0.852-1.499-1.88-1.499h-0.369l-0.005-0.276h6.261v0.276h-0.372c-1.005,0-1.826,0.643-1.875,1.449v13.107
		c0.033,0.819,0.86,1.475,1.876,1.475h0.369L77,25.949L70.737,25.95L70.737,25.95z"/>
	<path fill="#FFFFFF" d="M94.625,24.062c0.564,1.137,1.395,1.611,2.133,1.611h0.209v0.276h-5.678v-0.274h0.22
		c0.63,0,1.339-0.601,0.977-1.659l-1.509-3.678h-6.992l-1.521,3.601c-0.422,1.106,0.304,1.736,0.949,1.736h0.22v0.274h-5.266v-0.277
		h0.219c0.736,0,1.6-0.47,2.167-1.596l5.722-12.251c-0.008,0,1.007-2.123,1.064-2.847H87.8L94.625,24.062z M90.636,19.511
		l-3.105-7.564l-3.196,7.564H90.636z"/>
	<path fill="#FFFFFF" d="M114.811,18.986l-0.293,3.785c-1.436,2.209-4.345,3.564-7.612,3.564c-5.599-0.028-9.12-3.323-9.12-8.679
		c0-5.38,3.524-8.678,9.12-8.678c2.303,0,4.768,0.636,6.473,1.673l0.611,3.904h-0.243c-0.847-3.387-3.426-4.749-6.854-4.749
		c-4.376,0-7.109,2.984-7.109,7.852c0,4.779,2.737,7.782,7.131,7.821c4.121,0.037,7.355-1.962,7.652-6.49L114.811,18.986z"/>
	<path fill="#FFFFFF" d="M129.389,25.95l0.004-0.277h0.317c0.872,0,1.582-0.656,1.61-1.475v-6.017H121.12v6.015
		c0.028,0.821,0.737,1.477,1.61,1.477h0.318l0.004,0.277h-5.631l0.004-0.277h0.318c0.879,0,1.593-0.667,1.61-1.496V11.14
		c-0.017-0.83-0.73-1.498-1.611-1.498h-0.317l-0.004-0.277h5.632l-0.003,0.277h-0.318c-0.864,0-1.568,0.643-1.609,1.452v6.257
		h10.201V11.14c-0.016-0.83-0.73-1.498-1.611-1.498h-0.317l-0.004-0.277h5.633l-0.004,0.277H134.7c-0.863,0-1.566,0.642-1.61,1.448
		v13.111c0.032,0.818,0.74,1.472,1.61,1.472h0.317l0.004,0.276L129.389,25.95z"/>
	<path fill="#FFFFFF" d="M138.037,25.95l0.006-0.277h0.369c1.027,0,1.857-0.667,1.879-1.496V11.14
		c-0.022-0.83-0.852-1.499-1.881-1.499h-0.369l-0.005-0.276h6.261v0.276h-0.372c-1.005,0-1.826,0.643-1.875,1.449v13.107
		c0.033,0.819,0.86,1.475,1.876,1.475h0.369l0.005,0.276L138.037,25.95L138.037,25.95z"/>
	<path fill="#FFFFFF" d="M148.567,8.223c1.448-4.325,4.522-5.288,10.644-5.394c2.274-0.04,4.966,0.039,8.153,0.107
		c7.726,0.166,12.994,5.061,12.994,12.65c0,7.604-5.267,12.666-12.994,12.666h-12.236l0.007-0.362h0.457
		c1.197,0,2.181-0.907,2.306-2.071V4.004c-6.291,0.171-7.738,2.124-8.932,4.366L148.567,8.223z M160.253,27.173h7.112
		c6.165,0,10.279-4.634,10.279-11.585c0-6.931-4.079-11.552-10.279-11.583h-7.112V27.173z"/>
	<path fill="#FFFFFF" d="M181.255,25.95l0.005-0.277h0.369c1.028,0,1.857-0.667,1.878-1.496V11.14
		c-0.021-0.83-0.851-1.499-1.88-1.499h-0.369l-0.005-0.276h6.261v0.276h-0.373c-1.005,0-1.826,0.643-1.875,1.449v13.107
		c0.033,0.819,0.86,1.475,1.876,1.475h0.369l0.004,0.276L181.255,25.95L181.255,25.95z"/>
	<path fill="#FFFFFF" d="M207.485,9.367v0.276h-0.221c-0.738,0-1.606,0.474-2.173,1.611l-5.716,12.236
		c0.009,0-1.006,2.124-1.063,2.847h-0.261l-6.823-15.077c-0.563-1.141-1.396-1.617-2.136-1.617h-0.209V9.367h5.676v0.274h-0.22
		c-0.634,0-1.321,0.609-0.967,1.682l4.946,12.048l5.07-11.996c0.42-1.105-0.305-1.734-0.95-1.734h-0.219V9.367L207.485,9.367
		L207.485,9.367z"/>
	<path fill="#FFFFFF" d="M208.866,25.95l0.005-0.277h0.369c1.028,0,1.858-0.667,1.878-1.496V11.14
		c-0.021-0.83-0.851-1.499-1.879-1.499h-0.369l-0.006-0.276h6.262v0.276h-0.373c-1.005,0-1.825,0.643-1.874,1.449v13.107
		c0.032,0.819,0.86,1.475,1.876,1.475h0.369l0.004,0.276L208.866,25.95L208.866,25.95z"/>
	<path fill="#FFFFFF" d="M237.198,9.367l-0.004,0.276h-0.459c-0.819,0-1.488,0.612-1.536,1.383v11.786
		c0,1.78,0.261,3.525,0.261,3.525h-0.262l-14.374-13.639V24.23c0.016,0.8,0.698,1.444,1.539,1.444h0.46l0.003,0.277h-5.224
		l0.004-0.277h0.459c0.841,0,1.523-0.644,1.54-1.444V12.406c0-1.887-0.265-3.453-0.265-3.453l0.297,0.013l14.342,13.518v-11.46
		c-0.049-0.771-0.718-1.381-1.537-1.381h-0.459l-0.004-0.277L237.198,9.367z"/>
	<path fill="#FFFFFF" d="M254.284,24.062c0.563,1.137,1.396,1.611,2.133,1.611h0.208v0.276h-5.677v-0.274h0.22
		c0.63,0,1.338-0.601,0.977-1.659l-1.51-3.678h-6.991l-1.521,3.601c-0.421,1.106,0.304,1.736,0.95,1.736h0.22v0.274h-5.267v-0.277
		h0.221c0.735,0,1.6-0.47,2.166-1.596l5.723-12.251c-0.009,0,1.007-2.123,1.064-2.847h0.262L254.284,24.062z M250.296,19.511
		l-3.106-7.564l-3.195,7.564H250.296z"/>
	<path fill="#FFFFFF" d="M266.507,18.918c0.852,0.716,1.242,1.895,1.251,2.969c0.022,2.466-2.165,4.449-4.892,4.449
		c-1.639,0-3.76-0.399-4.768-1.301c-0.174-0.735-0.103-2.364,0.275-3.432h0.318c-0.245,2.49,1.431,3.974,3.87,3.905
		c2.286-0.065,3.682-1.256,3.682-3.052c0-0.86-0.294-1.564-1.006-2.188l-5.529-4.266c-1.029-0.879-1.307-2.027-1.32-2.987
		c-0.034-2.246,2.011-4.035,4.568-4.035c1.266,0,2.116,0.113,2.735,0.256h0.925l0.041,3.006h-0.317c0-1.531-1.025-2.444-3.193-2.444
		c-1.846,0-3.333,1.167-3.321,2.636c0.004,0.711,0.22,1.481,1.086,2.177L266.507,18.918z"/>
</g>
</svg>
