<?xml version="1.0" encoding="utf-8"?>
<!-- Generator: Adobe Illustrator 16.0.4, SVG Export Plug-In . SVG Version: 6.00 Build 0)  -->
<!DOCTYPE svg PUBLIC "-//W3C//DTD SVG 1.1//EN" "http://www.w3.org/Graphics/SVG/1.1/DTD/svg11.dtd">
<svg version="1.1" id="Layer_1" xmlns="http://www.w3.org/2000/svg" xmlns:xlink="http://www.w3.org/1999/xlink" x="0px" y="0px"
	 width="581.261px" height="74.664px" viewBox="0 0 581.261 74.664" enable-background="new 0 0 581.261 74.664"
	 xml:space="preserve">
<g>
	<path d="M69.258,52.01c2.224,14.205,9.894,22.048,20.493,21.59v0.761c-15.556,2.285-24.18-8.679-25.951-21.661l-4.643-33.938
		L43.312,54.558c0,0-2.122,4.622-2.613,7.774h-0.717L20.26,19.495l-3.395,37.802c-0.165,1.831,1.56,3.285,2.968,3.252h1.187v0.719
		H6.274v-0.762h1.211c2.665-0.001,5.06-1.686,5.525-4.599l4.829-41.533C14.625,8.053,9.217,0.099,0,1.277V0.515
		c12.996-2.93,20.251,7.365,22.656,12.57l18.352,39.728L61.489,6.927h0.695L69.258,52.01z"/>
	<path d="M107.855,52.237c1.224,2.468,3.029,3.497,4.631,3.497h0.454v0.6h-12.325v-0.595h0.477c1.368,0,2.906-1.303,2.12-3.601
		l-3.277-7.984H84.757l-3.303,7.819c-0.917,2.4,0.66,3.767,2.061,3.767h0.477v0.595H72.561v-0.601h0.476
		c1.597,0,3.473-1.021,4.704-3.465l12.422-26.595c-0.017,0,2.186-4.609,2.31-6.18h0.569L107.855,52.237z M99.196,42.355
		l-6.741-16.419l-6.938,16.419H99.196z"/>
	<path d="M130.977,20.336c7.564,0,12.198,3.655,12.198,9.716c0,5.088-3.944,9.34-9.329,9.88c1.309,0.594,3.336,2.88,4.622,4.702
		c-0.009,0,2.769,3.761,5.25,6.541c2.442,2.738,4.122,4.53,7.449,4.559v0.602h-1.89c-6.637,0-9.257-3.019-11.139-5.28
		c-0.678-0.815-5.409-7.631-5.879-8.22c-1.625-2.035-3.706-4.04-6.08-4.04v-0.555c-0.002,0,1.479,0.025,3.441-0.024
		c3.318-0.084,7.099-0.116,8.819-5.16c0.287-0.841,0.457-2.105,0.419-3.42c-0.126-4.495-3.152-7.136-7.979-7.38
		c-3.372-0.171-6.329-0.021-6.899-0.053v30.28c0.038,1.802,1.479,3.252,3.409,3.252h0.812l0.011,0.6H115.94l0.011-0.6h0.81
		c1.897,0,3.33-1.407,3.408-3.172V24.057c-0.062-1.778-1.5-3.122-3.409-3.122h-0.81l-0.011-0.6L130.977,20.336z"/>
	<path d="M153.56,56.333l0.011-0.6h0.8c2.231,0,4.033-1.449,4.078-3.249v-28.3c-0.045-1.802-1.848-3.253-4.081-3.253h-0.8
		l-0.011-0.6h13.592v0.6h-0.808c-2.182,0-3.963,1.395-4.069,3.146v28.453c0.071,1.778,1.867,3.202,4.072,3.202h0.8l0.011,0.6H153.56
		z"/>
	<path d="M205.415,52.237c1.224,2.468,3.029,3.497,4.631,3.497h0.454v0.6h-12.325v-0.595h0.477c1.368,0,2.906-1.303,2.12-3.601
		l-3.277-7.984h-15.178l-3.303,7.819c-0.917,2.4,0.66,3.767,2.061,3.767h0.477v0.595H170.12v-0.601h0.476
		c1.597,0,3.473-1.021,4.704-3.465l12.422-26.595c-0.017,0,2.186-4.609,2.31-6.18h0.569L205.415,52.237z M196.756,42.355
		l-6.741-16.419l-6.938,16.419H196.756z"/>
	<path d="M249.237,41.217l-0.636,8.217c-3.117,4.797-9.432,7.736-16.524,7.736c-12.155-0.06-19.798-7.214-19.798-18.839
		c0-11.681,7.651-18.84,19.798-18.84c4.999,0,10.35,1.38,14.052,3.632l1.326,8.475h-0.527c-1.838-7.352-7.438-10.309-14.877-10.309
		c-9.501,0-15.433,6.477-15.433,17.044c0,10.375,5.941,16.894,15.481,16.98c8.945,0.08,15.967-4.26,16.612-14.091L249.237,41.217z"
		/>
	<path d="M280.883,56.333l0.009-0.6h0.689c1.894,0,3.434-1.425,3.495-3.204v-13.06h-22.144v13.057c0.06,1.78,1.6,3.207,3.495,3.207
		h0.689l0.009,0.6H254.9l0.009-0.6h0.689c1.91,0,3.458-1.448,3.496-3.248V24.184c-0.037-1.802-1.586-3.252-3.498-3.252h-0.689
		l-0.009-0.601h12.226l-0.007,0.601h-0.691c-1.875,0-3.404,1.397-3.493,3.153v13.583h22.144V24.184
		c-0.035-1.802-1.586-3.252-3.497-3.252h-0.689l-0.009-0.601h12.227l-0.009,0.601h-0.689c-1.872,0-3.399,1.394-3.493,3.145V52.54
		c0.068,1.774,1.605,3.194,3.496,3.194h0.688l0.01,0.6L280.883,56.333z"/>
	<path d="M299.658,56.333l0.012-0.6h0.8c2.231,0,4.032-1.449,4.078-3.249v-28.3c-0.046-1.802-1.848-3.253-4.081-3.253h-0.801
		l-0.011-0.6h13.592v0.6h-0.808c-2.182,0-3.963,1.395-4.07,3.146v28.453c0.071,1.778,1.867,3.202,4.072,3.202h0.801l0.012,0.6
		H299.658z"/>
	<path d="M322.517,17.852c3.143-9.389,9.816-11.48,23.106-11.711c4.935-0.086,10.781,0.085,17.699,0.233
		c16.771,0.36,28.208,10.987,28.208,27.462c0,16.508-11.433,27.495-28.208,27.495H336.76l0.013-0.785h0.993
		c2.599,0,4.733-1.969,5.005-4.495V8.692c-13.656,0.371-16.799,4.61-19.391,9.477L322.517,17.852z M347.885,58.989h15.438
		c13.384,0,22.315-10.06,22.315-25.15c0-15.047-8.855-25.077-22.315-25.143h-15.438V58.989z"/>
	<path d="M393.476,56.333l0.012-0.6h0.801c2.232,0,4.033-1.449,4.078-3.249v-28.3c-0.045-1.802-1.848-3.253-4.08-3.253h-0.801
		l-0.012-0.6h13.592v0.6h-0.809c-2.182,0-3.963,1.395-4.068,3.146v28.453c0.07,1.778,1.867,3.202,4.072,3.202h0.801l0.01,0.6
		H393.476z"/>
	<path d="M450.417,20.335v0.6h-0.479c-1.602,0-3.488,1.029-4.717,3.498l-12.408,26.562c0.018,0-2.184,4.61-2.309,6.18h-0.566
		l-14.811-32.729c-1.223-2.478-3.031-3.511-4.637-3.511h-0.455v-0.6h12.322v0.595h-0.477c-1.377,0-2.867,1.321-2.1,3.65
		l10.738,26.154l11.006-26.042c0.914-2.399-0.662-3.764-2.062-3.764h-0.477v-0.594H450.417z"/>
	<path d="M453.416,56.333l0.012-0.6h0.801c2.232,0,4.033-1.449,4.078-3.249v-28.3c-0.045-1.802-1.848-3.253-4.08-3.253h-0.801
		l-0.012-0.6h13.592v0.6h-0.809c-2.182,0-3.963,1.395-4.068,3.146v28.453c0.07,1.778,1.867,3.202,4.072,3.202h0.801l0.01,0.6
		H453.416z"/>
	<path d="M514.919,20.334l-0.008,0.6h-0.998c-1.779,0-3.23,1.328-3.334,3.003v25.584c0,3.865,0.568,7.654,0.568,7.654h-0.57
		l-31.205-29.608v25.035c0.033,1.736,1.516,3.135,3.34,3.135h1l0.006,0.6h-11.34l0.008-0.6h0.998c1.826,0,3.307-1.398,3.342-3.135
		v-25.67c0-4.096-0.574-7.495-0.574-7.495l0.645,0.029l31.133,29.345v-24.88c-0.107-1.672-1.559-2.997-3.336-2.997h-0.996
		l-0.01-0.601L514.919,20.334z"/>
	<path d="M552.011,52.237c1.223,2.468,3.029,3.497,4.631,3.497h0.453v0.6h-12.324v-0.595h0.477c1.369,0,2.906-1.303,2.121-3.601
		l-3.277-7.984h-15.178l-3.303,7.819c-0.916,2.4,0.66,3.767,2.061,3.767h0.477v0.595h-11.432v-0.601h0.477
		c1.596,0,3.473-1.021,4.703-3.465l12.422-26.595c-0.018,0,2.186-4.609,2.309-6.18h0.57L552.011,52.237z M543.353,42.355
		l-6.742-16.419l-6.938,16.419H543.353z"/>
	<path d="M578.544,41.068c1.85,1.554,2.695,4.113,2.717,6.446c0.047,5.354-4.699,9.659-10.619,9.659
		c-3.557,0-8.164-0.867-10.35-2.826c-0.379-1.596-0.225-5.131,0.596-7.449h0.691c-0.531,5.405,3.109,8.627,8.402,8.477
		c4.961-0.142,7.994-2.727,7.994-6.626c0-1.868-0.639-3.396-2.186-4.749l-12.002-9.261c-2.232-1.908-2.836-4.401-2.865-6.484
		c-0.072-4.875,4.365-8.76,9.918-8.76c2.748,0,4.594,0.245,5.936,0.556h2.006l0.09,6.526h-0.688c0-3.324-2.225-5.305-6.932-5.305
		c-4.008,0-7.234,2.533-7.211,5.723c0.01,1.543,0.477,3.214,2.357,4.725L578.544,41.068z"/>
</g>
</svg>
